<svg xmlns="http://www.w3.org/2000/svg" enable-background="new 0 0 72 72" viewBox="0 0 72 72" id="intagram-threads">
  <switch>
    <g>
      <path d="M35,68C22.7,68,8,62.1,8,34.1C8,4.3,34.8,4,35,4
			C59.2,4,64,25.5,64,25.7l-5.9,1.2l2.9-0.6L58.1,27C58,26.3,54.3,10,35,10c-0.8,0-21,0.4-21,24.1C14,62,29.8,62,35,62
			c7.9,0,19-4.5,19-14.4c0-3.9-1.4-6.7-4.4-8.3c-1.7,9.7-8.3,13.3-14.6,13.3c-7,0-11.8-5.8-11.8-11.2c0-4.7,3.6-10.3,13.8-10.3
			c1.6,0,4.1,0,6.8,0.4c-0.3-2-1.1-3.5-2.2-4.4c-2.4-2-6-1.5-6.1-1.5c-0.2,0-0.3,0-0.5,0c-0.1,0-2.9,0.1-5.9,3l-4.2-4.3
			c4.3-4.2,8.7-4.6,9.8-4.7c1.2-0.1,6.6-0.6,10.7,2.9c2.8,2.4,4.3,5.9,4.5,10.5c5.3,2,10,6.1,10,14.7C60.1,60.8,47.2,68,35,68z
			 M37,37.1c-4.9,0-7.8,1.6-7.8,4.3c0,2.4,2.4,5.2,5.8,5.2c3.6,0,7.8-1.7,8.8-9C41.9,37.2,39.6,37.1,37,37.1z"></path>
    </g>
  </switch>
</svg>
